<svg xmlns="http://www.w3.org/2000/svg" viewBox="0 0 48 48">
  <path fill="#EA4335" d="M24 9.5c3.54 0 6.71 1.22 9.21 3.6l6.85-6.85C35.9 2.38 30.47 0 24 0 14.62 0 6.51 5.38 2.56 13.22l7.98 6.19C12.53 13.02 17.74 9.5 24 9.5z"/>
  <path fill="#4285F4" d="M46.5 24c0-1.57-.14-3.08-.41-4.5H24v9h12.65c-.55 2.97-2.23 5.48-4.74 7.17l7.35 5.7C43.41 37.02 46.5 31 46.5 24z"/>
  <path fill="#FBBC05" d="M10.54 28.41A14.48 14.48 0 0 1 9.5 24c0-1.53.26-3.01.74-4.41l-7.98-6.19A23.89 23.89 0 0 0 0 24c0 3.91.93 7.61 2.56 10.91l7.98-6.19z"/>
  <path fill="#34A853" d="M24 48c6.48 0 11.93-2.13 15.9-5.79l-7.35-5.7c-2.04 1.38-4.66 2.19-8.55 2.19-6.26 0-11.47-3.52-13.46-8.91l-7.98 6.19C6.51 42.62 14.62 48 24 48z"/>
</svg>
